<svg width="24" height="24" viewBox="0 0 24 24" fill="none" xmlns="http://www.w3.org/2000/svg">
<path d="M17.6143 15.5152C19.0668 13.5332 19.7173 11.0759 19.4358 8.6349C19.1543 6.19389 17.9615 3.94918 16.096 2.34987C14.2305 0.750556 11.83 -0.0854205 9.3746 0.00918925C6.91923 0.103799 4.59012 1.12202 2.85325 2.86014C1.11637 4.59825 0.0998225 6.92809 0.0069698 9.38352C-0.0858829 11.839 0.751811 14.2389 2.35246 16.1032C3.95311 17.9676 6.19866 19.1588 8.63988 19.4386C11.0811 19.7183 13.5379 19.066 15.5188 17.6122H15.5173C15.5623 17.6722 15.6103 17.7292 15.6643 17.7847L21.4393 23.5597C21.7206 23.8411 22.1022 23.9993 22.5001 23.9995C22.898 23.9996 23.2796 23.8417 23.5611 23.5604C23.8426 23.2792 24.0008 22.8976 24.0009 22.4997C24.001 22.1018 23.8431 21.7201 23.5618 21.4387L17.7868 15.6637C17.7332 15.6094 17.6756 15.5592 17.6143 15.5137V15.5152ZM18.0013 9.74917C18.0013 10.8326 17.788 11.9054 17.3734 12.9063C16.9588 13.9072 16.3511 14.8167 15.585 15.5828C14.8189 16.3489 13.9094 16.9566 12.9085 17.3712C11.9075 17.7858 10.8348 17.9992 9.75135 17.9992C8.66794 17.9992 7.59514 17.7858 6.59421 17.3712C5.59327 16.9566 4.6838 16.3489 3.91772 15.5828C3.15163 14.8167 2.54394 13.9072 2.12934 12.9063C1.71474 11.9054 1.50135 10.8326 1.50135 9.74917C1.50135 7.56114 2.37054 5.46272 3.91772 3.91554C5.46489 2.36837 7.56331 1.49917 9.75135 1.49917C11.9394 1.49917 14.0378 2.36837 15.585 3.91554C17.1322 5.46272 18.0013 7.56114 18.0013 9.74917V9.74917Z" fill="#7B6AED"/>
</svg>
