<svg width="24" height="24" viewBox="0 0 24 24" fill="none" xmlns="http://www.w3.org/2000/svg">
<path d="M6.75391 13.5C7.35064 13.5 7.92294 13.2629 8.3449 12.841C8.76685 12.419 9.00391 11.8467 9.00391 11.25C9.00391 10.6533 8.76685 10.081 8.3449 9.65901C7.92294 9.23705 7.35064 9 6.75391 9C6.15717 9 5.58487 9.23705 5.16292 9.65901C4.74096 10.081 4.50391 10.6533 4.50391 11.25C4.50391 11.8467 4.74096 12.419 5.16292 12.841C5.58487 13.2629 6.15717 13.5 6.75391 13.5V13.5Z" fill="#7B6AED"/>
<path d="M21.0039 19.5C21.0039 20.2956 20.6878 21.0587 20.1252 21.6213C19.5626 22.1839 18.7996 22.5 18.0039 22.5H3.00391C2.20826 22.5 1.4452 22.1839 0.882586 21.6213C0.319977 21.0587 0.00390625 20.2956 0.00390625 19.5V7.5C0.00390585 6.70487 0.319565 5.94226 0.881525 5.37974C1.44349 4.81722 2.20578 4.5008 3.00091 4.5C3.00091 3.70435 3.31698 2.94129 3.87959 2.37868C4.44219 1.81607 5.20526 1.5 6.00091 1.5H21.0009C21.7966 1.5 22.5596 1.81607 23.1222 2.37868C23.6848 2.94129 24.0009 3.70435 24.0009 4.5V16.5C24.0009 17.2951 23.6852 18.0577 23.1233 18.6203C22.5613 19.1828 21.799 19.4992 21.0039 19.5ZM21.0009 3H6.00091C5.60308 3 5.22155 3.15804 4.94025 3.43934C4.65894 3.72064 4.50091 4.10218 4.50091 4.5H18.0039C18.7996 4.5 19.5626 4.81607 20.1252 5.37868C20.6878 5.94129 21.0039 6.70435 21.0039 7.5V18C21.4012 17.9992 21.782 17.8408 22.0626 17.5596C22.3433 17.2784 22.5009 16.8973 22.5009 16.5V4.5C22.5009 4.10218 22.3429 3.72064 22.0616 3.43934C21.7803 3.15804 21.3987 3 21.0009 3V3ZM3.00391 6C2.60608 6 2.22455 6.15804 1.94325 6.43934C1.66194 6.72064 1.50391 7.10218 1.50391 7.5V19.5L5.47291 15.969C5.59551 15.8468 5.75658 15.7709 5.92881 15.7539C6.10105 15.737 6.27385 15.7801 6.41791 15.876L10.4079 18.5355L15.9729 12.9705C16.0841 12.8592 16.2276 12.7856 16.3829 12.7603C16.5382 12.735 16.6976 12.7592 16.8384 12.8295L19.5039 15.75V7.5C19.5039 7.10218 19.3459 6.72064 19.0646 6.43934C18.7833 6.15804 18.4017 6 18.0039 6H3.00391V6Z" fill="#7B6AED"/>
</svg>
